<mxfile host="app.diagrams.net" modified="2023-05-30T14:58:22.019Z" agent="Mozilla/5.0 (Windows NT 6.1; Win64; x64; rv:109.0) Gecko/20100101 Firefox/113.0" etag="8nxKrP_6XhkzMs5FiuFF" version="21.3.5" type="github">
  <diagram id="kgpKYQtTHZ0yAKxKKP6v" name="Page-1">
    <mxGraphModel dx="954" dy="520" grid="1" gridSize="10" guides="1" tooltips="1" connect="1" arrows="1" fold="1" page="1" pageScale="1" pageWidth="850" pageHeight="1100" math="0" shadow="0">
      <root>
        <mxCell id="0" />
        <mxCell id="1" parent="0" />
        <mxCell id="a6YS1Ys6OPTmTMVAg_gW-11" value="Ecosistema Kafka" style="swimlane;labelBackgroundColor=none;fillColor=#09555B;strokeColor=#BAC8D3;fontColor=#EEEEEE;" vertex="1" parent="1">
          <mxGeometry x="170" y="360" width="520" height="340" as="geometry" />
        </mxCell>
        <mxCell id="a6YS1Ys6OPTmTMVAg_gW-12" value="Cluster Kafka" style="swimlane;labelBackgroundColor=none;fillColor=#09555B;strokeColor=#BAC8D3;fontColor=#EEEEEE;" vertex="1" parent="1">
          <mxGeometry x="212" y="410" width="438" height="270" as="geometry" />
        </mxCell>
        <mxCell id="a6YS1Ys6OPTmTMVAg_gW-13" value="Broker" style="swimlane;startSize=23;labelBackgroundColor=none;fillColor=#09555B;strokeColor=#BAC8D3;fontColor=#EEEEEE;" vertex="1" parent="a6YS1Ys6OPTmTMVAg_gW-12">
          <mxGeometry x="48" y="40" width="362" height="200" as="geometry" />
        </mxCell>
        <mxCell id="a6YS1Ys6OPTmTMVAg_gW-16" value="" style="outlineConnect=0;dashed=0;verticalLabelPosition=bottom;verticalAlign=top;align=center;html=1;shape=mxgraph.aws3.topic_2;fillColor=#60a917;labelBackgroundColor=none;strokeColor=#2D7600;fontColor=#ffffff;" vertex="1" parent="a6YS1Ys6OPTmTMVAg_gW-13">
          <mxGeometry x="20" y="47" width="150" height="100" as="geometry" />
        </mxCell>
        <mxCell id="a6YS1Ys6OPTmTMVAg_gW-17" value="" style="outlineConnect=0;dashed=0;verticalLabelPosition=bottom;verticalAlign=top;align=center;html=1;shape=mxgraph.aws3.topic_2;fillColor=#60a917;labelBackgroundColor=none;strokeColor=#2D7600;fontColor=#ffffff;" vertex="1" parent="a6YS1Ys6OPTmTMVAg_gW-13">
          <mxGeometry x="190" y="47" width="150" height="100" as="geometry" />
        </mxCell>
      </root>
    </mxGraphModel>
  </diagram>
</mxfile>
